<mxfile host="app.diagrams.net" agent="Mozilla/5.0 (Windows NT 10.0; Win64; x64) AppleWebKit/537.36 (KHTML, like Gecko) Chrome/137.0.0.0 Safari/537.36 Edg/137.0.0.0" version="27.1.4">
  <diagram name="Página-1" id="MDoxLDoqkfSMzkElBbLV">
    <mxGraphModel dx="12521" dy="7116" grid="1" gridSize="10" guides="1" tooltips="1" connect="1" arrows="1" fold="1" page="1" pageScale="1" pageWidth="827" pageHeight="1169" math="0" shadow="0">
      <root>
        <mxCell id="0" />
        <mxCell id="1" parent="0" />
        <mxCell id="HdKdjEtqScnofqRFwXR5-90" value="" style="group;movable=1;resizable=1;rotatable=1;deletable=1;editable=1;locked=0;connectable=1;" vertex="1" connectable="0" parent="1">
          <mxGeometry x="-1250" y="-120" width="2440" height="1289" as="geometry" />
        </mxCell>
        <mxCell id="HdKdjEtqScnofqRFwXR5-84" value="" style="rounded=1;whiteSpace=wrap;html=1;fillColor=#dae8fc;strokeColor=#6c8ebf;" vertex="1" parent="HdKdjEtqScnofqRFwXR5-90">
          <mxGeometry y="42.28006728343146" width="2440" height="1246.7199327165686" as="geometry" />
        </mxCell>
        <mxCell id="HdKdjEtqScnofqRFwXR5-85" value="&lt;font style=&quot;font-size: 80px;&quot;&gt;&lt;b style=&quot;&quot;&gt;Chassi&lt;/b&gt;&lt;/font&gt;" style="text;html=1;align=center;verticalAlign=middle;whiteSpace=wrap;rounded=0;" vertex="1" parent="HdKdjEtqScnofqRFwXR5-90">
          <mxGeometry x="148.25316455696205" width="333.5696202531646" height="65.04625735912532" as="geometry" />
        </mxCell>
        <mxCell id="HdKdjEtqScnofqRFwXR5-156" value="" style="group;movable=0;resizable=0;rotatable=0;deletable=0;editable=0;locked=1;connectable=0;" vertex="1" connectable="0" parent="1">
          <mxGeometry x="1430" y="-110" width="1690" height="1100" as="geometry" />
        </mxCell>
        <mxCell id="HdKdjEtqScnofqRFwXR5-154" value="" style="rounded=1;whiteSpace=wrap;html=1;fillColor=#dae8fc;strokeColor=#6c8ebf;" vertex="1" parent="HdKdjEtqScnofqRFwXR5-156">
          <mxGeometry y="42.27999999999997" width="1690" height="1057.72" as="geometry" />
        </mxCell>
        <mxCell id="HdKdjEtqScnofqRFwXR5-155" value="&lt;font style=&quot;font-size: 80px;&quot;&gt;&lt;b style=&quot;&quot;&gt;Auxiliar Chassi&lt;/b&gt;&lt;/font&gt;" style="text;html=1;align=center;verticalAlign=middle;whiteSpace=wrap;rounded=0;" vertex="1" parent="HdKdjEtqScnofqRFwXR5-156">
          <mxGeometry x="120" width="620" height="65.05" as="geometry" />
        </mxCell>
        <mxCell id="HdKdjEtqScnofqRFwXR5-1" style="edgeStyle=orthogonalEdgeStyle;rounded=0;orthogonalLoop=1;jettySize=auto;html=1;" edge="1" parent="1" source="HdKdjEtqScnofqRFwXR5-2" target="HdKdjEtqScnofqRFwXR5-4">
          <mxGeometry relative="1" as="geometry" />
        </mxCell>
        <mxCell id="HdKdjEtqScnofqRFwXR5-128" style="edgeStyle=orthogonalEdgeStyle;rounded=0;orthogonalLoop=1;jettySize=auto;html=1;" edge="1" parent="1" source="HdKdjEtqScnofqRFwXR5-2" target="HdKdjEtqScnofqRFwXR5-127">
          <mxGeometry relative="1" as="geometry" />
        </mxCell>
        <mxCell id="HdKdjEtqScnofqRFwXR5-2" value="Inicio" style="rounded=1;whiteSpace=wrap;html=1;" vertex="1" parent="1">
          <mxGeometry x="294" y="10" width="120" height="60" as="geometry" />
        </mxCell>
        <mxCell id="HdKdjEtqScnofqRFwXR5-3" value="" style="edgeStyle=orthogonalEdgeStyle;rounded=0;orthogonalLoop=1;jettySize=auto;html=1;" edge="1" parent="1" source="HdKdjEtqScnofqRFwXR5-4" target="HdKdjEtqScnofqRFwXR5-9">
          <mxGeometry relative="1" as="geometry" />
        </mxCell>
        <mxCell id="HdKdjEtqScnofqRFwXR5-4" value="Ler Sensor do meio" style="rounded=0;whiteSpace=wrap;html=1;" vertex="1" parent="1">
          <mxGeometry x="530" y="120" width="120" height="60" as="geometry" />
        </mxCell>
        <mxCell id="HdKdjEtqScnofqRFwXR5-5" value="" style="edgeStyle=orthogonalEdgeStyle;rounded=0;orthogonalLoop=1;jettySize=auto;html=1;" edge="1" parent="1" source="HdKdjEtqScnofqRFwXR5-9" target="HdKdjEtqScnofqRFwXR5-11">
          <mxGeometry relative="1" as="geometry" />
        </mxCell>
        <mxCell id="HdKdjEtqScnofqRFwXR5-6" value="SIM" style="edgeLabel;html=1;align=center;verticalAlign=middle;resizable=0;points=[];" vertex="1" connectable="0" parent="HdKdjEtqScnofqRFwXR5-5">
          <mxGeometry x="-0.1111" relative="1" as="geometry">
            <mxPoint as="offset" />
          </mxGeometry>
        </mxCell>
        <mxCell id="HdKdjEtqScnofqRFwXR5-7" style="edgeStyle=orthogonalEdgeStyle;rounded=0;orthogonalLoop=1;jettySize=auto;html=1;entryX=1;entryY=0.5;entryDx=0;entryDy=0;" edge="1" parent="1" source="HdKdjEtqScnofqRFwXR5-9" target="HdKdjEtqScnofqRFwXR5-48">
          <mxGeometry relative="1" as="geometry" />
        </mxCell>
        <mxCell id="HdKdjEtqScnofqRFwXR5-8" value="NÃO" style="edgeLabel;html=1;align=center;verticalAlign=middle;resizable=0;points=[];" vertex="1" connectable="0" parent="HdKdjEtqScnofqRFwXR5-7">
          <mxGeometry x="-0.0222" relative="1" as="geometry">
            <mxPoint as="offset" />
          </mxGeometry>
        </mxCell>
        <mxCell id="HdKdjEtqScnofqRFwXR5-9" value="Branco&lt;br&gt;?" style="rhombus;whiteSpace=wrap;html=1;rounded=0;" vertex="1" parent="1">
          <mxGeometry x="550" y="230" width="80" height="80" as="geometry" />
        </mxCell>
        <mxCell id="HdKdjEtqScnofqRFwXR5-10" style="edgeStyle=orthogonalEdgeStyle;rounded=0;orthogonalLoop=1;jettySize=auto;html=1;entryX=0.5;entryY=0;entryDx=0;entryDy=0;" edge="1" parent="1" source="HdKdjEtqScnofqRFwXR5-11" target="HdKdjEtqScnofqRFwXR5-16">
          <mxGeometry relative="1" as="geometry" />
        </mxCell>
        <mxCell id="HdKdjEtqScnofqRFwXR5-11" value="&lt;font style=&quot;font-size: 11px;&quot;&gt;Ler Sensor Esquerda&lt;/font&gt;" style="whiteSpace=wrap;html=1;rounded=0;" vertex="1" parent="1">
          <mxGeometry x="760" y="240" width="120" height="60" as="geometry" />
        </mxCell>
        <mxCell id="HdKdjEtqScnofqRFwXR5-12" style="edgeStyle=orthogonalEdgeStyle;rounded=0;orthogonalLoop=1;jettySize=auto;html=1;" edge="1" parent="1" source="HdKdjEtqScnofqRFwXR5-16" target="HdKdjEtqScnofqRFwXR5-18">
          <mxGeometry relative="1" as="geometry">
            <Array as="points">
              <mxPoint x="930" y="390" />
            </Array>
          </mxGeometry>
        </mxCell>
        <mxCell id="HdKdjEtqScnofqRFwXR5-13" value="SIM" style="edgeLabel;html=1;align=center;verticalAlign=middle;resizable=0;points=[];" vertex="1" connectable="0" parent="HdKdjEtqScnofqRFwXR5-12">
          <mxGeometry x="-0.5429" y="2" relative="1" as="geometry">
            <mxPoint as="offset" />
          </mxGeometry>
        </mxCell>
        <mxCell id="HdKdjEtqScnofqRFwXR5-14" style="edgeStyle=orthogonalEdgeStyle;rounded=0;orthogonalLoop=1;jettySize=auto;html=1;entryX=0.5;entryY=0;entryDx=0;entryDy=0;" edge="1" parent="1" source="HdKdjEtqScnofqRFwXR5-16" target="HdKdjEtqScnofqRFwXR5-25">
          <mxGeometry relative="1" as="geometry">
            <Array as="points">
              <mxPoint x="720" y="390" />
              <mxPoint x="720" y="465" />
            </Array>
          </mxGeometry>
        </mxCell>
        <mxCell id="HdKdjEtqScnofqRFwXR5-15" value="NÃO" style="edgeLabel;html=1;align=center;verticalAlign=middle;resizable=0;points=[];" vertex="1" connectable="0" parent="HdKdjEtqScnofqRFwXR5-14">
          <mxGeometry x="-0.712" relative="1" as="geometry">
            <mxPoint x="-16" as="offset" />
          </mxGeometry>
        </mxCell>
        <mxCell id="HdKdjEtqScnofqRFwXR5-16" value="Branco&lt;br&gt;?" style="rhombus;whiteSpace=wrap;html=1;rounded=0;" vertex="1" parent="1">
          <mxGeometry x="780" y="350" width="80" height="80" as="geometry" />
        </mxCell>
        <mxCell id="HdKdjEtqScnofqRFwXR5-17" style="edgeStyle=orthogonalEdgeStyle;rounded=0;orthogonalLoop=1;jettySize=auto;html=1;entryX=0.5;entryY=0;entryDx=0;entryDy=0;" edge="1" parent="1" source="HdKdjEtqScnofqRFwXR5-18" target="HdKdjEtqScnofqRFwXR5-23">
          <mxGeometry relative="1" as="geometry" />
        </mxCell>
        <mxCell id="HdKdjEtqScnofqRFwXR5-18" value="&lt;font style=&quot;font-size: 11px;&quot;&gt;Virar para direita&lt;/font&gt;&lt;div&gt;&lt;font style=&quot;font-size: 11px;&quot;&gt;&lt;br&gt;Ler Sensor do Meio&lt;/font&gt;&lt;/div&gt;" style="whiteSpace=wrap;html=1;rounded=0;" vertex="1" parent="1">
          <mxGeometry x="870" y="465" width="120" height="60" as="geometry" />
        </mxCell>
        <mxCell id="HdKdjEtqScnofqRFwXR5-19" style="edgeStyle=orthogonalEdgeStyle;rounded=0;orthogonalLoop=1;jettySize=auto;html=1;entryX=1;entryY=0.5;entryDx=0;entryDy=0;" edge="1" parent="1" source="HdKdjEtqScnofqRFwXR5-23" target="HdKdjEtqScnofqRFwXR5-18">
          <mxGeometry relative="1" as="geometry">
            <Array as="points">
              <mxPoint x="1010" y="605" />
              <mxPoint x="1010" y="495" />
            </Array>
          </mxGeometry>
        </mxCell>
        <mxCell id="HdKdjEtqScnofqRFwXR5-20" value="SIM" style="edgeLabel;html=1;align=center;verticalAlign=middle;resizable=0;points=[];" vertex="1" connectable="0" parent="HdKdjEtqScnofqRFwXR5-19">
          <mxGeometry x="-0.7882" y="-1" relative="1" as="geometry">
            <mxPoint as="offset" />
          </mxGeometry>
        </mxCell>
        <mxCell id="HdKdjEtqScnofqRFwXR5-21" style="edgeStyle=orthogonalEdgeStyle;rounded=0;orthogonalLoop=1;jettySize=auto;html=1;entryX=1;entryY=0.5;entryDx=0;entryDy=0;" edge="1" parent="1" source="HdKdjEtqScnofqRFwXR5-23" target="HdKdjEtqScnofqRFwXR5-4">
          <mxGeometry relative="1" as="geometry">
            <Array as="points">
              <mxPoint x="930" y="650" />
              <mxPoint x="1030" y="650" />
              <mxPoint x="1030" y="150" />
            </Array>
          </mxGeometry>
        </mxCell>
        <mxCell id="HdKdjEtqScnofqRFwXR5-22" value="NÃO" style="edgeLabel;html=1;align=center;verticalAlign=middle;resizable=0;points=[];" vertex="1" connectable="0" parent="HdKdjEtqScnofqRFwXR5-21">
          <mxGeometry x="-0.9115" relative="1" as="geometry">
            <mxPoint as="offset" />
          </mxGeometry>
        </mxCell>
        <mxCell id="HdKdjEtqScnofqRFwXR5-23" value="Branco&lt;br&gt;?" style="rhombus;whiteSpace=wrap;html=1;rounded=0;" vertex="1" parent="1">
          <mxGeometry x="890" y="565" width="80" height="80" as="geometry" />
        </mxCell>
        <mxCell id="HdKdjEtqScnofqRFwXR5-24" style="edgeStyle=orthogonalEdgeStyle;rounded=0;orthogonalLoop=1;jettySize=auto;html=1;entryX=0.5;entryY=0;entryDx=0;entryDy=0;" edge="1" parent="1" source="HdKdjEtqScnofqRFwXR5-25" target="HdKdjEtqScnofqRFwXR5-30">
          <mxGeometry relative="1" as="geometry" />
        </mxCell>
        <mxCell id="HdKdjEtqScnofqRFwXR5-25" value="&lt;font style=&quot;font-size: 11px;&quot;&gt;Virar para esquerda&lt;/font&gt;&lt;div&gt;&lt;span style=&quot;font-size: 11px;&quot;&gt;&lt;br&gt;&lt;/span&gt;&lt;div&gt;&lt;font style=&quot;font-size: 11px;&quot;&gt;Ler Sensor do Meio&lt;/font&gt;&lt;/div&gt;&lt;/div&gt;" style="whiteSpace=wrap;html=1;rounded=0;" vertex="1" parent="1">
          <mxGeometry x="660" y="466" width="120" height="60" as="geometry" />
        </mxCell>
        <mxCell id="HdKdjEtqScnofqRFwXR5-26" style="edgeStyle=orthogonalEdgeStyle;rounded=0;orthogonalLoop=1;jettySize=auto;html=1;entryX=1;entryY=0.5;entryDx=0;entryDy=0;" edge="1" parent="1" source="HdKdjEtqScnofqRFwXR5-30" target="HdKdjEtqScnofqRFwXR5-25">
          <mxGeometry relative="1" as="geometry">
            <Array as="points">
              <mxPoint x="800" y="606" />
              <mxPoint x="800" y="496" />
            </Array>
          </mxGeometry>
        </mxCell>
        <mxCell id="HdKdjEtqScnofqRFwXR5-27" value="SIM" style="edgeLabel;html=1;align=center;verticalAlign=middle;resizable=0;points=[];" vertex="1" connectable="0" parent="HdKdjEtqScnofqRFwXR5-26">
          <mxGeometry x="-0.7882" y="-1" relative="1" as="geometry">
            <mxPoint as="offset" />
          </mxGeometry>
        </mxCell>
        <mxCell id="HdKdjEtqScnofqRFwXR5-28" style="edgeStyle=orthogonalEdgeStyle;rounded=0;orthogonalLoop=1;jettySize=auto;html=1;entryX=1;entryY=0.25;entryDx=0;entryDy=0;" edge="1" parent="1" source="HdKdjEtqScnofqRFwXR5-30" target="HdKdjEtqScnofqRFwXR5-4">
          <mxGeometry relative="1" as="geometry">
            <Array as="points">
              <mxPoint x="720" y="660" />
              <mxPoint x="1040" y="660" />
              <mxPoint x="1040" y="135" />
            </Array>
          </mxGeometry>
        </mxCell>
        <mxCell id="HdKdjEtqScnofqRFwXR5-29" value="NÃO" style="edgeLabel;html=1;align=center;verticalAlign=middle;resizable=0;points=[];" vertex="1" connectable="0" parent="HdKdjEtqScnofqRFwXR5-28">
          <mxGeometry x="-0.9254" y="1" relative="1" as="geometry">
            <mxPoint as="offset" />
          </mxGeometry>
        </mxCell>
        <mxCell id="HdKdjEtqScnofqRFwXR5-30" value="Branco&lt;br&gt;?" style="rhombus;whiteSpace=wrap;html=1;rounded=0;" vertex="1" parent="1">
          <mxGeometry x="680" y="566" width="80" height="80" as="geometry" />
        </mxCell>
        <mxCell id="HdKdjEtqScnofqRFwXR5-31" value="Controle&lt;div&gt;PID&lt;/div&gt;" style="ellipse;whiteSpace=wrap;html=1;aspect=fixed;" vertex="1" parent="1">
          <mxGeometry x="-750" y="220" width="79" height="80" as="geometry" />
        </mxCell>
        <mxCell id="HdKdjEtqScnofqRFwXR5-32" style="edgeStyle=orthogonalEdgeStyle;rounded=0;orthogonalLoop=1;jettySize=auto;html=1;entryX=0.5;entryY=0;entryDx=0;entryDy=0;" edge="1" parent="1" source="HdKdjEtqScnofqRFwXR5-33" target="HdKdjEtqScnofqRFwXR5-38">
          <mxGeometry relative="1" as="geometry" />
        </mxCell>
        <mxCell id="HdKdjEtqScnofqRFwXR5-33" value="&lt;font style=&quot;font-size: 11px;&quot;&gt;Ler Sensor Esquerda&lt;/font&gt;&lt;div&gt;&lt;span style=&quot;font-size: 11px;&quot;&gt;OU&lt;/span&gt;&lt;/div&gt;&lt;div&gt;&lt;font style=&quot;font-size: 11px;&quot;&gt;Ler Sensor Direita&lt;/font&gt;&lt;/div&gt;" style="whiteSpace=wrap;html=1;rounded=0;" vertex="1" parent="1">
          <mxGeometry x="-620.0000000000002" y="110" width="119" height="60" as="geometry" />
        </mxCell>
        <mxCell id="HdKdjEtqScnofqRFwXR5-34" style="edgeStyle=orthogonalEdgeStyle;rounded=0;orthogonalLoop=1;jettySize=auto;html=1;entryX=0;entryY=0.5;entryDx=0;entryDy=0;" edge="1" parent="1" source="HdKdjEtqScnofqRFwXR5-38" target="HdKdjEtqScnofqRFwXR5-53">
          <mxGeometry relative="1" as="geometry" />
        </mxCell>
        <mxCell id="HdKdjEtqScnofqRFwXR5-35" value="SIM" style="edgeLabel;html=1;align=center;verticalAlign=middle;resizable=0;points=[];" vertex="1" connectable="0" parent="HdKdjEtqScnofqRFwXR5-34">
          <mxGeometry x="-0.0459" relative="1" as="geometry">
            <mxPoint as="offset" />
          </mxGeometry>
        </mxCell>
        <mxCell id="HdKdjEtqScnofqRFwXR5-36" style="edgeStyle=orthogonalEdgeStyle;rounded=0;orthogonalLoop=1;jettySize=auto;html=1;entryX=1;entryY=0.5;entryDx=0;entryDy=0;" edge="1" parent="1" source="HdKdjEtqScnofqRFwXR5-38" target="HdKdjEtqScnofqRFwXR5-31">
          <mxGeometry relative="1" as="geometry" />
        </mxCell>
        <mxCell id="HdKdjEtqScnofqRFwXR5-37" value="NÃO" style="edgeLabel;html=1;align=center;verticalAlign=middle;resizable=0;points=[];" vertex="1" connectable="0" parent="HdKdjEtqScnofqRFwXR5-36">
          <mxGeometry x="-0.0866" y="-2" relative="1" as="geometry">
            <mxPoint as="offset" />
          </mxGeometry>
        </mxCell>
        <mxCell id="HdKdjEtqScnofqRFwXR5-38" value="Verde&lt;br&gt;?" style="rhombus;whiteSpace=wrap;html=1;rounded=0;" vertex="1" parent="1">
          <mxGeometry x="-600.0000000000002" y="220" width="79" height="80" as="geometry" />
        </mxCell>
        <mxCell id="HdKdjEtqScnofqRFwXR5-39" style="edgeStyle=orthogonalEdgeStyle;rounded=0;orthogonalLoop=1;jettySize=auto;html=1;" edge="1" parent="1" source="HdKdjEtqScnofqRFwXR5-40" target="HdKdjEtqScnofqRFwXR5-42">
          <mxGeometry relative="1" as="geometry" />
        </mxCell>
        <mxCell id="HdKdjEtqScnofqRFwXR5-40" value="&lt;span style=&quot;font-size: 11px;&quot;&gt;Seguir Reto&lt;/span&gt;" style="whiteSpace=wrap;html=1;rounded=0;" vertex="1" parent="1">
          <mxGeometry x="-400" y="340" width="69" height="34" as="geometry" />
        </mxCell>
        <mxCell id="HdKdjEtqScnofqRFwXR5-41" style="edgeStyle=orthogonalEdgeStyle;rounded=0;orthogonalLoop=1;jettySize=auto;html=1;entryX=0.5;entryY=0;entryDx=0;entryDy=0;" edge="1" parent="1" source="HdKdjEtqScnofqRFwXR5-42" target="HdKdjEtqScnofqRFwXR5-47">
          <mxGeometry relative="1" as="geometry" />
        </mxCell>
        <mxCell id="HdKdjEtqScnofqRFwXR5-42" value="&lt;font style=&quot;font-size: 11px;&quot;&gt;Ler Sensor Esquerda&lt;/font&gt;&lt;div&gt;&lt;span style=&quot;font-size: 11px;&quot;&gt;OU&lt;/span&gt;&lt;/div&gt;&lt;div&gt;&lt;font style=&quot;font-size: 11px;&quot;&gt;Ler Sensor Direita&lt;/font&gt;&lt;/div&gt;" style="whiteSpace=wrap;html=1;rounded=0;" vertex="1" parent="1">
          <mxGeometry x="-425" y="420" width="119" height="60" as="geometry" />
        </mxCell>
        <mxCell id="HdKdjEtqScnofqRFwXR5-43" style="edgeStyle=orthogonalEdgeStyle;rounded=0;orthogonalLoop=1;jettySize=auto;html=1;" edge="1" parent="1" source="HdKdjEtqScnofqRFwXR5-47" target="HdKdjEtqScnofqRFwXR5-51">
          <mxGeometry relative="1" as="geometry" />
        </mxCell>
        <mxCell id="HdKdjEtqScnofqRFwXR5-44" value="NÃO" style="edgeLabel;html=1;align=center;verticalAlign=middle;resizable=0;points=[];" vertex="1" connectable="0" parent="HdKdjEtqScnofqRFwXR5-43">
          <mxGeometry x="-0.6506" y="-2" relative="1" as="geometry">
            <mxPoint x="19" y="-2" as="offset" />
          </mxGeometry>
        </mxCell>
        <mxCell id="HdKdjEtqScnofqRFwXR5-45" style="edgeStyle=orthogonalEdgeStyle;rounded=0;orthogonalLoop=1;jettySize=auto;html=1;entryX=0.5;entryY=0;entryDx=0;entryDy=0;" edge="1" parent="1" source="HdKdjEtqScnofqRFwXR5-47" target="HdKdjEtqScnofqRFwXR5-55">
          <mxGeometry relative="1" as="geometry">
            <mxPoint x="-365" y="680" as="targetPoint" />
          </mxGeometry>
        </mxCell>
        <mxCell id="HdKdjEtqScnofqRFwXR5-46" value="SIM" style="edgeLabel;html=1;align=center;verticalAlign=middle;resizable=0;points=[];" vertex="1" connectable="0" parent="HdKdjEtqScnofqRFwXR5-45">
          <mxGeometry x="-0.2571" y="2" relative="1" as="geometry">
            <mxPoint x="-2" y="-1" as="offset" />
          </mxGeometry>
        </mxCell>
        <mxCell id="HdKdjEtqScnofqRFwXR5-47" value="Preto&lt;br&gt;?" style="rhombus;whiteSpace=wrap;html=1;rounded=0;" vertex="1" parent="1">
          <mxGeometry x="-405" y="530" width="79" height="80" as="geometry" />
        </mxCell>
        <mxCell id="HdKdjEtqScnofqRFwXR5-48" value="Verificar&lt;br&gt;Intersecção" style="ellipse;whiteSpace=wrap;html=1;aspect=fixed;" vertex="1" parent="1">
          <mxGeometry x="380" y="230" width="80" height="80" as="geometry" />
        </mxCell>
        <mxCell id="HdKdjEtqScnofqRFwXR5-49" style="edgeStyle=orthogonalEdgeStyle;rounded=0;orthogonalLoop=1;jettySize=auto;html=1;entryX=0.5;entryY=0;entryDx=0;entryDy=0;" edge="1" parent="1" source="HdKdjEtqScnofqRFwXR5-50" target="HdKdjEtqScnofqRFwXR5-33">
          <mxGeometry relative="1" as="geometry" />
        </mxCell>
        <mxCell id="HdKdjEtqScnofqRFwXR5-50" value="Verificar&lt;br&gt;Interseção" style="ellipse;whiteSpace=wrap;html=1;aspect=fixed;" vertex="1" parent="1">
          <mxGeometry x="-600" width="79" height="80" as="geometry" />
        </mxCell>
        <mxCell id="HdKdjEtqScnofqRFwXR5-51" value="Controle&lt;div&gt;PID&lt;/div&gt;" style="ellipse;whiteSpace=wrap;html=1;aspect=fixed;" vertex="1" parent="1">
          <mxGeometry x="-229" y="530" width="79" height="80" as="geometry" />
        </mxCell>
        <mxCell id="HdKdjEtqScnofqRFwXR5-52" style="edgeStyle=orthogonalEdgeStyle;rounded=0;orthogonalLoop=1;jettySize=auto;html=1;entryX=0.5;entryY=0;entryDx=0;entryDy=0;" edge="1" parent="1" source="HdKdjEtqScnofqRFwXR5-53" target="HdKdjEtqScnofqRFwXR5-40">
          <mxGeometry relative="1" as="geometry" />
        </mxCell>
        <mxCell id="HdKdjEtqScnofqRFwXR5-53" value="&lt;span style=&quot;font-size: 11px;&quot;&gt;Variável:&lt;/span&gt;&lt;div&gt;&lt;span style=&quot;font-size: 11px;&quot;&gt;sensorLeuVerde = &quot;left&quot;&lt;/span&gt;&lt;/div&gt;&lt;div&gt;&lt;span style=&quot;font-size: 11px;&quot;&gt;sensorLeuVerde = &quot;right&quot;&lt;/span&gt;&lt;/div&gt;&lt;div&gt;&lt;span style=&quot;font-size: 11px;&quot;&gt;sensorLeuVerde = &quot;both&quot;&lt;/span&gt;&lt;span style=&quot;font-size: 11px;&quot;&gt;&lt;/span&gt;&lt;/div&gt;" style="whiteSpace=wrap;html=1;rounded=0;" vertex="1" parent="1">
          <mxGeometry x="-440" y="230" width="149" height="60" as="geometry" />
        </mxCell>
        <mxCell id="HdKdjEtqScnofqRFwXR5-54" style="edgeStyle=orthogonalEdgeStyle;rounded=0;orthogonalLoop=1;jettySize=auto;html=1;" edge="1" parent="1" source="HdKdjEtqScnofqRFwXR5-55" target="HdKdjEtqScnofqRFwXR5-60">
          <mxGeometry relative="1" as="geometry" />
        </mxCell>
        <mxCell id="HdKdjEtqScnofqRFwXR5-55" value="&lt;span style=&quot;font-size: 11px;&quot;&gt;Ler variável:&lt;br&gt;sensorLeuVerde&lt;/span&gt;" style="whiteSpace=wrap;html=1;rounded=0;" vertex="1" parent="1">
          <mxGeometry x="-425" y="690" width="119" height="60" as="geometry" />
        </mxCell>
        <mxCell id="HdKdjEtqScnofqRFwXR5-56" style="edgeStyle=orthogonalEdgeStyle;rounded=0;orthogonalLoop=1;jettySize=auto;html=1;" edge="1" parent="1" source="HdKdjEtqScnofqRFwXR5-60" target="HdKdjEtqScnofqRFwXR5-62">
          <mxGeometry relative="1" as="geometry" />
        </mxCell>
        <mxCell id="HdKdjEtqScnofqRFwXR5-57" value="SIM" style="edgeLabel;html=1;align=center;verticalAlign=middle;resizable=0;points=[];" vertex="1" connectable="0" parent="HdKdjEtqScnofqRFwXR5-56">
          <mxGeometry x="-0.1429" y="1" relative="1" as="geometry">
            <mxPoint as="offset" />
          </mxGeometry>
        </mxCell>
        <mxCell id="HdKdjEtqScnofqRFwXR5-58" style="edgeStyle=orthogonalEdgeStyle;rounded=0;orthogonalLoop=1;jettySize=auto;html=1;" edge="1" parent="1" source="HdKdjEtqScnofqRFwXR5-60" target="HdKdjEtqScnofqRFwXR5-66">
          <mxGeometry relative="1" as="geometry" />
        </mxCell>
        <mxCell id="HdKdjEtqScnofqRFwXR5-59" value="NÃO" style="edgeLabel;html=1;align=center;verticalAlign=middle;resizable=0;points=[];" vertex="1" connectable="0" parent="HdKdjEtqScnofqRFwXR5-58">
          <mxGeometry x="-0.15" relative="1" as="geometry">
            <mxPoint as="offset" />
          </mxGeometry>
        </mxCell>
        <mxCell id="HdKdjEtqScnofqRFwXR5-60" value="&quot;both&quot;" style="rhombus;whiteSpace=wrap;html=1;rounded=0;" vertex="1" parent="1">
          <mxGeometry x="-405" y="800" width="79" height="80" as="geometry" />
        </mxCell>
        <mxCell id="HdKdjEtqScnofqRFwXR5-61" style="edgeStyle=orthogonalEdgeStyle;rounded=0;orthogonalLoop=1;jettySize=auto;html=1;entryX=1;entryY=0.75;entryDx=0;entryDy=0;" edge="1" parent="1" source="HdKdjEtqScnofqRFwXR5-62" target="HdKdjEtqScnofqRFwXR5-33">
          <mxGeometry relative="1" as="geometry">
            <Array as="points">
              <mxPoint x="-130" y="840" />
              <mxPoint x="-130" y="155" />
            </Array>
          </mxGeometry>
        </mxCell>
        <mxCell id="HdKdjEtqScnofqRFwXR5-62" value="&lt;span style=&quot;font-size: 11px;&quot;&gt;Dar meia volta&lt;/span&gt;" style="whiteSpace=wrap;html=1;rounded=0;" vertex="1" parent="1">
          <mxGeometry x="-255" y="810" width="119" height="60" as="geometry" />
        </mxCell>
        <mxCell id="HdKdjEtqScnofqRFwXR5-63" style="edgeStyle=orthogonalEdgeStyle;rounded=0;orthogonalLoop=1;jettySize=auto;html=1;entryX=0;entryY=0.5;entryDx=0;entryDy=0;" edge="1" parent="1" source="HdKdjEtqScnofqRFwXR5-66" target="HdKdjEtqScnofqRFwXR5-69">
          <mxGeometry relative="1" as="geometry" />
        </mxCell>
        <mxCell id="HdKdjEtqScnofqRFwXR5-64" style="edgeStyle=orthogonalEdgeStyle;rounded=0;orthogonalLoop=1;jettySize=auto;html=1;entryX=0.5;entryY=0;entryDx=0;entryDy=0;" edge="1" parent="1" source="HdKdjEtqScnofqRFwXR5-66" target="HdKdjEtqScnofqRFwXR5-71">
          <mxGeometry relative="1" as="geometry" />
        </mxCell>
        <mxCell id="HdKdjEtqScnofqRFwXR5-65" value="NÃO" style="edgeLabel;html=1;align=center;verticalAlign=middle;resizable=0;points=[];" vertex="1" connectable="0" parent="HdKdjEtqScnofqRFwXR5-64">
          <mxGeometry x="-0.2157" y="1" relative="1" as="geometry">
            <mxPoint as="offset" />
          </mxGeometry>
        </mxCell>
        <mxCell id="HdKdjEtqScnofqRFwXR5-66" value="&quot;left&quot;" style="rhombus;whiteSpace=wrap;html=1;rounded=0;" vertex="1" parent="1">
          <mxGeometry x="-405" y="920" width="79" height="80" as="geometry" />
        </mxCell>
        <mxCell id="HdKdjEtqScnofqRFwXR5-67" value="SIM" style="edgeLabel;html=1;align=center;verticalAlign=middle;resizable=0;points=[];" vertex="1" connectable="0" parent="1">
          <mxGeometry x="-295.43" y="958.9999999999998" as="geometry" />
        </mxCell>
        <mxCell id="HdKdjEtqScnofqRFwXR5-68" style="edgeStyle=orthogonalEdgeStyle;rounded=0;orthogonalLoop=1;jettySize=auto;html=1;entryX=1;entryY=0.5;entryDx=0;entryDy=0;" edge="1" parent="1" source="HdKdjEtqScnofqRFwXR5-69" target="HdKdjEtqScnofqRFwXR5-33">
          <mxGeometry relative="1" as="geometry">
            <Array as="points">
              <mxPoint x="-120" y="960" />
              <mxPoint x="-120" y="140" />
            </Array>
          </mxGeometry>
        </mxCell>
        <mxCell id="HdKdjEtqScnofqRFwXR5-69" value="&lt;span style=&quot;font-size: 11px;&quot;&gt;Curva para Esquerda&lt;/span&gt;" style="whiteSpace=wrap;html=1;rounded=0;" vertex="1" parent="1">
          <mxGeometry x="-254.9952173913045" y="930" width="119" height="60" as="geometry" />
        </mxCell>
        <mxCell id="HdKdjEtqScnofqRFwXR5-70" style="edgeStyle=orthogonalEdgeStyle;rounded=0;orthogonalLoop=1;jettySize=auto;html=1;entryX=1;entryY=0.25;entryDx=0;entryDy=0;" edge="1" parent="1" source="HdKdjEtqScnofqRFwXR5-71" target="HdKdjEtqScnofqRFwXR5-33">
          <mxGeometry relative="1" as="geometry">
            <Array as="points">
              <mxPoint x="-110" y="1080" />
              <mxPoint x="-110" y="125" />
            </Array>
          </mxGeometry>
        </mxCell>
        <mxCell id="HdKdjEtqScnofqRFwXR5-71" value="&lt;span style=&quot;font-size: 11px;&quot;&gt;Curva para Direita&lt;/span&gt;" style="whiteSpace=wrap;html=1;rounded=0;" vertex="1" parent="1">
          <mxGeometry x="-425" y="1050" width="119" height="60" as="geometry" />
        </mxCell>
        <mxCell id="HdKdjEtqScnofqRFwXR5-72" style="edgeStyle=orthogonalEdgeStyle;rounded=0;orthogonalLoop=1;jettySize=auto;html=1;entryX=1.004;entryY=0.914;entryDx=0;entryDy=0;entryPerimeter=0;" edge="1" parent="1" source="HdKdjEtqScnofqRFwXR5-51" target="HdKdjEtqScnofqRFwXR5-33">
          <mxGeometry relative="1" as="geometry">
            <Array as="points">
              <mxPoint x="-140" y="570" />
              <mxPoint x="-140" y="165" />
            </Array>
          </mxGeometry>
        </mxCell>
        <mxCell id="HdKdjEtqScnofqRFwXR5-73" value="" style="edgeStyle=orthogonalEdgeStyle;rounded=0;orthogonalLoop=1;jettySize=auto;html=1;" edge="1" parent="1" source="HdKdjEtqScnofqRFwXR5-74" target="HdKdjEtqScnofqRFwXR5-78">
          <mxGeometry relative="1" as="geometry" />
        </mxCell>
        <mxCell id="HdKdjEtqScnofqRFwXR5-74" value="Controle&lt;div&gt;PID&lt;/div&gt;" style="ellipse;whiteSpace=wrap;html=1;aspect=fixed;" vertex="1" parent="1">
          <mxGeometry x="-1030" width="80" height="80" as="geometry" />
        </mxCell>
        <mxCell id="HdKdjEtqScnofqRFwXR5-75" value="" style="edgeStyle=orthogonalEdgeStyle;rounded=0;orthogonalLoop=1;jettySize=auto;html=1;" edge="1" parent="1" source="HdKdjEtqScnofqRFwXR5-76" target="HdKdjEtqScnofqRFwXR5-80">
          <mxGeometry relative="1" as="geometry" />
        </mxCell>
        <mxCell id="HdKdjEtqScnofqRFwXR5-76" value="Variável:&lt;div&gt;left_reflection&lt;br&gt;right_reflection&lt;/div&gt;" style="rounded=0;whiteSpace=wrap;html=1;" vertex="1" parent="1">
          <mxGeometry x="-1050" y="230" width="120" height="60" as="geometry" />
        </mxCell>
        <mxCell id="HdKdjEtqScnofqRFwXR5-77" style="edgeStyle=orthogonalEdgeStyle;rounded=0;orthogonalLoop=1;jettySize=auto;html=1;entryX=0.5;entryY=0;entryDx=0;entryDy=0;" edge="1" parent="1" source="HdKdjEtqScnofqRFwXR5-78" target="HdKdjEtqScnofqRFwXR5-76">
          <mxGeometry relative="1" as="geometry" />
        </mxCell>
        <mxCell id="HdKdjEtqScnofqRFwXR5-78" value="Ler luz refletida no sensor da esquerda e direita" style="whiteSpace=wrap;html=1;" vertex="1" parent="1">
          <mxGeometry x="-1050" y="120" width="120" height="60" as="geometry" />
        </mxCell>
        <mxCell id="HdKdjEtqScnofqRFwXR5-79" style="edgeStyle=orthogonalEdgeStyle;rounded=0;orthogonalLoop=1;jettySize=auto;html=1;" edge="1" parent="1" source="HdKdjEtqScnofqRFwXR5-80" target="HdKdjEtqScnofqRFwXR5-82">
          <mxGeometry relative="1" as="geometry" />
        </mxCell>
        <mxCell id="HdKdjEtqScnofqRFwXR5-80" value="error = left_reflection - right_reflection" style="whiteSpace=wrap;html=1;rounded=0;" vertex="1" parent="1">
          <mxGeometry x="-1115" y="350" width="250" height="60" as="geometry" />
        </mxCell>
        <mxCell id="HdKdjEtqScnofqRFwXR5-81" style="edgeStyle=orthogonalEdgeStyle;rounded=0;orthogonalLoop=1;jettySize=auto;html=1;entryX=0.5;entryY=0;entryDx=0;entryDy=0;" edge="1" parent="1" source="HdKdjEtqScnofqRFwXR5-82" target="HdKdjEtqScnofqRFwXR5-83">
          <mxGeometry relative="1" as="geometry" />
        </mxCell>
        <mxCell id="HdKdjEtqScnofqRFwXR5-82" value="output = error * kP" style="whiteSpace=wrap;html=1;rounded=0;" vertex="1" parent="1">
          <mxGeometry x="-1115" y="455" width="250" height="60" as="geometry" />
        </mxCell>
        <mxCell id="HdKdjEtqScnofqRFwXR5-83" value="output = error * kP" style="whiteSpace=wrap;html=1;rounded=0;" vertex="1" parent="1">
          <mxGeometry x="-1115" y="590" width="250" height="60" as="geometry" />
        </mxCell>
        <mxCell id="HdKdjEtqScnofqRFwXR5-148" style="edgeStyle=orthogonalEdgeStyle;rounded=0;orthogonalLoop=1;jettySize=auto;html=1;" edge="1" parent="1" source="HdKdjEtqScnofqRFwXR5-97" target="HdKdjEtqScnofqRFwXR5-140">
          <mxGeometry relative="1" as="geometry" />
        </mxCell>
        <mxCell id="HdKdjEtqScnofqRFwXR5-97" value="Inicio" style="rounded=1;whiteSpace=wrap;html=1;" vertex="1" parent="1">
          <mxGeometry x="2200" y="180" width="120" height="60" as="geometry" />
        </mxCell>
        <mxCell id="HdKdjEtqScnofqRFwXR5-130" style="edgeStyle=orthogonalEdgeStyle;rounded=0;orthogonalLoop=1;jettySize=auto;html=1;" edge="1" parent="1" source="HdKdjEtqScnofqRFwXR5-127" target="HdKdjEtqScnofqRFwXR5-129">
          <mxGeometry relative="1" as="geometry" />
        </mxCell>
        <mxCell id="HdKdjEtqScnofqRFwXR5-127" value="Ler inclinação do Spike" style="rounded=0;whiteSpace=wrap;html=1;" vertex="1" parent="1">
          <mxGeometry x="100" y="120" width="120" height="60" as="geometry" />
        </mxCell>
        <mxCell id="HdKdjEtqScnofqRFwXR5-133" style="edgeStyle=orthogonalEdgeStyle;rounded=0;orthogonalLoop=1;jettySize=auto;html=1;" edge="1" parent="1" source="HdKdjEtqScnofqRFwXR5-129" target="HdKdjEtqScnofqRFwXR5-131">
          <mxGeometry relative="1" as="geometry" />
        </mxCell>
        <mxCell id="HdKdjEtqScnofqRFwXR5-136" value="SIM" style="edgeLabel;html=1;align=center;verticalAlign=middle;resizable=0;points=[];" vertex="1" connectable="0" parent="HdKdjEtqScnofqRFwXR5-133">
          <mxGeometry x="-0.5713" y="2" relative="1" as="geometry">
            <mxPoint as="offset" />
          </mxGeometry>
        </mxCell>
        <mxCell id="HdKdjEtqScnofqRFwXR5-135" style="edgeStyle=orthogonalEdgeStyle;rounded=0;orthogonalLoop=1;jettySize=auto;html=1;" edge="1" parent="1" source="HdKdjEtqScnofqRFwXR5-129" target="HdKdjEtqScnofqRFwXR5-134">
          <mxGeometry relative="1" as="geometry" />
        </mxCell>
        <mxCell id="HdKdjEtqScnofqRFwXR5-137" value="NÃO" style="edgeLabel;html=1;align=center;verticalAlign=middle;resizable=0;points=[];" vertex="1" connectable="0" parent="HdKdjEtqScnofqRFwXR5-135">
          <mxGeometry x="-0.5398" relative="1" as="geometry">
            <mxPoint as="offset" />
          </mxGeometry>
        </mxCell>
        <mxCell id="HdKdjEtqScnofqRFwXR5-129" value="Maior que&lt;div&gt;5°?&lt;/div&gt;" style="rhombus;whiteSpace=wrap;html=1;rounded=0;" vertex="1" parent="1">
          <mxGeometry x="120" y="230" width="80" height="80" as="geometry" />
        </mxCell>
        <mxCell id="HdKdjEtqScnofqRFwXR5-131" value="&lt;font style=&quot;font-size: 11px;&quot;&gt;Definir Velocidade Devagar&lt;/font&gt;" style="whiteSpace=wrap;html=1;rounded=0;" vertex="1" parent="1">
          <mxGeometry x="220" y="360" width="120" height="60" as="geometry" />
        </mxCell>
        <mxCell id="HdKdjEtqScnofqRFwXR5-134" value="&lt;font style=&quot;font-size: 11px;&quot;&gt;Definir Velocidade Padrão&lt;/font&gt;" style="whiteSpace=wrap;html=1;rounded=0;" vertex="1" parent="1">
          <mxGeometry x="-20" y="360" width="120" height="60" as="geometry" />
        </mxCell>
        <mxCell id="HdKdjEtqScnofqRFwXR5-139" style="edgeStyle=orthogonalEdgeStyle;rounded=0;orthogonalLoop=1;jettySize=auto;html=1;" edge="1" parent="1" source="HdKdjEtqScnofqRFwXR5-140" target="HdKdjEtqScnofqRFwXR5-145">
          <mxGeometry relative="1" as="geometry" />
        </mxCell>
        <mxCell id="HdKdjEtqScnofqRFwXR5-140" value="Ler inclinação do Spike" style="rounded=0;whiteSpace=wrap;html=1;" vertex="1" parent="1">
          <mxGeometry x="2200" y="360" width="120" height="60" as="geometry" />
        </mxCell>
        <mxCell id="HdKdjEtqScnofqRFwXR5-141" style="edgeStyle=orthogonalEdgeStyle;rounded=0;orthogonalLoop=1;jettySize=auto;html=1;" edge="1" parent="1" source="HdKdjEtqScnofqRFwXR5-145" target="HdKdjEtqScnofqRFwXR5-146">
          <mxGeometry relative="1" as="geometry" />
        </mxCell>
        <mxCell id="HdKdjEtqScnofqRFwXR5-142" value="SIM" style="edgeLabel;html=1;align=center;verticalAlign=middle;resizable=0;points=[];" vertex="1" connectable="0" parent="HdKdjEtqScnofqRFwXR5-141">
          <mxGeometry x="-0.5713" y="2" relative="1" as="geometry">
            <mxPoint as="offset" />
          </mxGeometry>
        </mxCell>
        <mxCell id="HdKdjEtqScnofqRFwXR5-143" style="edgeStyle=orthogonalEdgeStyle;rounded=0;orthogonalLoop=1;jettySize=auto;html=1;" edge="1" parent="1" source="HdKdjEtqScnofqRFwXR5-145" target="HdKdjEtqScnofqRFwXR5-147">
          <mxGeometry relative="1" as="geometry" />
        </mxCell>
        <mxCell id="HdKdjEtqScnofqRFwXR5-144" value="NÃO" style="edgeLabel;html=1;align=center;verticalAlign=middle;resizable=0;points=[];" vertex="1" connectable="0" parent="HdKdjEtqScnofqRFwXR5-143">
          <mxGeometry x="-0.5398" relative="1" as="geometry">
            <mxPoint as="offset" />
          </mxGeometry>
        </mxCell>
        <mxCell id="HdKdjEtqScnofqRFwXR5-145" value="Maior ou&lt;div&gt;&lt;span style=&quot;background-color: transparent; color: light-dark(rgb(0, 0, 0), rgb(255, 255, 255));&quot;&gt;menor&amp;nbsp;&lt;/span&gt;&lt;/div&gt;&lt;div&gt;&lt;span style=&quot;background-color: transparent; color: light-dark(rgb(0, 0, 0), rgb(255, 255, 255));&quot;&gt;que&lt;/span&gt;&lt;div&gt;&lt;div&gt;5°?&lt;/div&gt;&lt;/div&gt;&lt;/div&gt;" style="rhombus;whiteSpace=wrap;html=1;rounded=0;" vertex="1" parent="1">
          <mxGeometry x="2205" y="450" width="110" height="110" as="geometry" />
        </mxCell>
        <mxCell id="HdKdjEtqScnofqRFwXR5-146" value="&lt;font style=&quot;font-size: 11px;&quot;&gt;Abaixar a garra&lt;/font&gt;" style="whiteSpace=wrap;html=1;rounded=0;" vertex="1" parent="1">
          <mxGeometry x="2320" y="600" width="120" height="60" as="geometry" />
        </mxCell>
        <mxCell id="HdKdjEtqScnofqRFwXR5-147" value="&lt;font style=&quot;font-size: 11px;&quot;&gt;Garra em pé&lt;/font&gt;" style="whiteSpace=wrap;html=1;rounded=0;" vertex="1" parent="1">
          <mxGeometry x="2080" y="600" width="120" height="60" as="geometry" />
        </mxCell>
      </root>
    </mxGraphModel>
  </diagram>
</mxfile>
